# xmcd
#
# Track frame offsets:
#	150
#	17035
#	32440
#	49225
#	68795
#	84622
#	99907
#	118460
#	134380
#	153037
#	172422
#	199947
#	228907
#	242090
#	254650
#	272625
#	288927
#	310870
#
# Disc length: 4319 seconds
#
# Revision: 4
# Processed by: cddbd v1.5.1PL0 Copyright (c) Steve Scherf et al.
# Submitted via: audiograbber 1.83.01
#
DISCID=0010dd12
DTITLE=Various Artist - Boot Scottin' 7
DYEAR=1900
DGENRE=Country
TTITLE0=Garth Brooks - The  Dance
TTITLE1=LeAnn Rimes - The Light In Your Eyes
TTITLE2=Charlie Daniels Band - Drinkin' My Baby Goodbye
TTITLE3=Tim McGraw - Indian Outlaw (Dance Mix)
TTITLE4=Mavericks - Missing You
TTITLE5=Confederate Railroad - Queen Of Memphis
TTITLE6=Asleep At The Wheel - San Antonio Rose
TTITLE7=Reba McEntire - I'd Rather Ride Around With You
TTITLE8=Alan Jackson - Chattahochee (Club Mix 12")
TTITLE9=Tracy Byrd - The Keeper Of The Stars (New Single Version)
TTITLE10=Brooks and Dunn - Boot Scootin' Boogie (Remix)
TTITLE11=Brooks and Dunn - Boot Scootin' Boogie (Club Mix)
TTITLE12=George Strait - Amarillo By Morning
TTITLE13=Clint Black - The Gulf Of Mexico
TTITLE14=Toby Keith - We Were In Love (Radio Edit)
TTITLE15=Billy Joe Royal - Boardwalk Angel
TTITLE16=Shania Twain - Whose Bed Have Your Boots Been Under (Dance Mix)
TTITLE17=Ty England - Kick Back
EXTD=
EXTT0=
EXTT1=
EXTT2=
EXTT3=
EXTT4=
EXTT5=
EXTT6=
EXTT7=
EXTT8=
EXTT9=
EXTT10=
EXTT11=
EXTT12=
EXTT13=
EXTT14=
EXTT15=
EXTT16=
EXTT17=
PLAYORDER=
